<svg width="160" height="49" viewBox="0 0 160 49" fill="none" xmlns="http://www.w3.org/2000/svg">
<path d="M22.9261 0C28.6516 0 33.0912 1.34079 36.2451 4.02239C39.4475 6.70398 41.0487 10.3119 41.0487 14.8463C41.0487 18.4542 40.1995 21.4284 38.5013 23.7687C36.8516 26.0602 34.4741 27.7423 31.3687 28.8149L43.8871 48.2687H30.0587L19.7965 30.6433H12.3V48.2687H0V0H22.9261ZM21.1794 21.7209C23.6054 21.7209 25.4249 21.2333 26.638 20.2582C27.851 19.2831 28.4575 17.7229 28.4575 15.5776C28.4575 11.5308 26.0314 9.50746 21.1794 9.50746H12.3V21.7209H21.1794Z" fill="black"/>
<path d="M45.1574 48.2687L62.0426 0H77.0356L93.8481 48.2687H80.9658L77.6906 37.3716H61.0965L57.7485 48.2687H45.1574ZM67.3557 17.1866L63.7166 28.8149H75.0705L71.577 17.2597L69.4663 9.65373H69.3208L67.3557 17.1866Z" fill="black"/>
<path d="M139.439 0V28.5955C139.439 42.1985 132.282 49 117.969 49C110.933 49 105.596 47.3179 101.957 43.9537C98.3179 40.5408 96.4983 35.4214 96.4983 28.5955V0H109.089V28.8149C109.089 35.6896 112.049 39.1269 117.969 39.1269C123.937 39.1269 126.921 35.6896 126.921 28.8149V0H139.439Z" fill="black"/>
<path d="M152.722 35.6896C155.002 35.6896 156.773 36.2746 158.035 37.4448C159.345 38.6149 160 40.2483 160 42.3448C160 44.3925 159.345 46.0015 158.035 47.1716C156.773 48.3418 155.002 48.9269 152.722 48.9269C150.441 48.9269 148.646 48.3418 147.336 47.1716C146.075 46.0015 145.444 44.3925 145.444 42.3448C145.444 40.2483 146.075 38.6149 147.336 37.4448C148.646 36.2746 150.441 35.6896 152.722 35.6896Z" fill="black"/>
</svg>
