<svg width="454" height="137" viewBox="0 0 454 137" fill="none" xmlns="http://www.w3.org/2000/svg">
<path d="M68.598 0.679993C85.162 0.679993 97.9554 4.51799 106.978 12.194C116.135 19.7353 120.714 29.8353 120.714 42.494C120.714 52.4593 118.492 60.7413 114.048 67.34C109.739 73.804 103.342 78.5847 94.858 81.682L128.39 134H83.344L57.488 87.742H40.722V134H0.322021V0.679993H68.598ZM61.932 59.664C67.7227 59.664 72.032 58.5867 74.86 56.432C77.8227 54.1427 79.304 50.4393 79.304 45.322C79.304 40.2047 77.8227 36.5013 74.86 34.212C72.032 31.9227 67.7227 30.778 61.932 30.778H40.722V59.664H61.932Z" fill="black"/>
<path d="M128.439 134L173.283 0.679993H222.773L267.819 134H225.399L217.925 106.326H177.323L169.647 134H128.439ZM192.069 52.998L184.595 79.662H210.855L203.583 53.2L197.927 31.384H197.523L192.069 52.998Z" fill="black"/>
<path d="M395.139 0.679993V78.046C395.139 116.695 374.468 136.02 333.125 136.02C291.648 136.02 270.909 116.695 270.909 78.046V0.679993H312.319V80.268C312.319 96.428 319.254 104.508 333.125 104.508C346.996 104.508 353.931 96.428 353.931 80.268V0.679993H395.139Z" fill="black"/>
<path d="M430.383 95.62C437.521 95.62 443.042 97.3707 446.947 100.872C450.987 104.373 453.007 109.289 453.007 115.618C453.007 121.947 450.987 126.863 446.947 130.364C443.042 133.865 437.521 135.616 430.383 135.616C423.246 135.616 417.657 133.865 413.617 130.364C409.712 126.863 407.759 121.947 407.759 115.618C407.759 109.289 409.712 104.373 413.617 100.872C417.657 97.3707 423.246 95.62 430.383 95.62Z" fill="black"/>
</svg>
